<svg width="132" height="127" viewBox="0 0 132 127" fill="none" xmlns="http://www.w3.org/2000/svg">
<path d="M21.4 93.7968C16.0264 93.792 11.0788 90.9938 8.47805 86.4887C5.87734 81.9835 6.03321 76.4811 8.88514 72.1177L35.4949 31.4164C38.2281 26.9846 43.2559 24.3225 48.6268 24.4636C53.9977 24.6047 58.8658 27.5266 61.3414 32.0953C63.817 36.6639 63.5103 42.1598 60.5403 46.4495L33.9464 87.1508C31.2415 91.292 26.4989 93.8042 21.4 93.7968Z" fill="#FB275D"/>
<path d="M66.7371 93.7968C61.3723 93.792 56.4328 91.0004 53.8364 86.506C51.2399 82.0116 51.3955 76.5222 54.2428 72.1692L80.8011 31.5645C83.4914 27.0681 88.5369 24.3423 93.9481 24.462C99.3593 24.5817 104.268 27.5277 106.738 32.1383C109.209 36.7489 108.845 42.2843 105.79 46.5619L79.2315 87.1665C76.5369 91.2888 71.8165 93.7937 66.7371 93.7968V93.7968Z" fill="#FFCC00"/>
<path d="M110.939 93.8796C119.066 93.8796 125.654 87.3027 125.654 79.1898C125.654 71.0768 119.066 64.5 110.939 64.5C102.812 64.5 96.2238 71.0768 96.2238 79.1898C96.2238 87.3027 102.812 93.8796 110.939 93.8796Z" fill="#00CA72"/>
</svg>
