<?xml version="1.0" encoding="UTF-8"?>
<svg id="Layer_2" data-name="Layer 2" xmlns="http://www.w3.org/2000/svg" viewBox="0 0 219.67 76.21">
  <defs>
    <style>
      .cls-1 {
        fill: #fff;
      }
    </style>
  </defs>
  <g id="Layer_2-2" data-name="Layer 2">
    <g id="Layer_1-2" data-name="Layer 1-2">
      <g id="RMIT_white" data-name="RMIT white">
        <g>
          <path class="cls-1" d="M26.21,0h-6.68v5.43h-11.15v11.34H0v16.65h8.37v11.34h11.13v5.43h5.91c13.78,0,25.93-11.13,25.93-25.02S40.03,0,26.21,0"/>
          <polygon class="cls-1" points="160.41 4.79 166.23 4.79 166.23 45.37 160.41 45.37 160.41 47.46 180.58 47.46 180.58 45.37 174.78 45.37 174.78 4.79 180.58 4.79 180.58 2.67 160.41 2.67 160.41 4.79"/>
          <path class="cls-1" d="M218.94,2.65h-35.88l-.73,11.81h2.12c1.23-8.58,2.81-10.61,12.27-10.13v41.03h-6.18v2.1h20.96v-2.1h-6.18V4.33c9.44-.48,11.06,1.55,12.27,10.13h2.08l-.73-11.81h0Z"/>
          <path class="cls-1" d="M142.23,5.47v39.89h-5.77v2.1h20.14v-2.1h-5.77V4.77h5.75v-2.14h-16.54l-9.72,30.65-9.37-30.65h-16.47v2.12h5.79v40.6h-6.25c-5.82.14-5.91-4.81-5.88-5.84.09-10.93-2.37-14.89-12.84-16.51v-.14c6.25-.66,14.23-2.44,14.23-10.01,0-9.33-8.69-10.2-16.03-10.2h-21.6v2.12h5.79v40.6h-5.79v2.12h20.16v-2.12h-5.79v-21.39c3.72-.14,7.91.8,9.78,2.42,1.76,1.48,2.69,6.09,2.69,11.63,0,6.84,3.54,9.44,10.33,9.44h19.43v-2.1h-5.66V5.47h.14l13.34,42.01h2.26l13.43-42.01h.22ZM76.27,21.85l-.02.02V4.77h5.84c5.98,0,8.19,1.51,8.19,9.03,0,6-2.49,8.05-8.51,8.05,0,0-5.5,0-5.5,0Z"/>
          <path class="cls-1" d="M78.55,59.94v9.69c0,2.67-1.67,4.24-4.2,4.24s-4.2-1.55-4.2-4.2v-9.74c0-1.12-.48-1.6-1.6-1.6h-2.51v2.14h1.07c.34,0,.55.18.55.55h-.02v8.74c0,3.83,2.74,6.45,6.73,6.45s6.66-2.62,6.66-6.45v-8.74c0-.36.21-.55.55-.55h1.07v-2.14h-2.49c-1.12,0-1.62.48-1.62,1.6"/>
          <path class="cls-1" d="M97.39,59.94v9.53c0,1,.18,2.39.18,2.39h-.05s-.82-1.46-1.46-2.39l-7.82-11.13h-2.26v14.87c0,.34-.21.55-.55.55h-1.07v2.14h2.51c1.12,0,1.6-.48,1.6-1.6v-9.53c0-.98-.16-2.39-.16-2.39h.05s.8,1.46,1.44,2.39l7.85,11.13h2.24v-14.87c0-.36.21-.55.55-.55h1.07v-2.14h-2.49c-1.14,0-1.62.48-1.62,1.6"/>
          <polygon class="cls-1" points="104.21 60.49 105.92 60.49 105.92 73.76 104.21 73.76 104.21 75.91 110.01 75.91 110.01 73.76 108.3 73.76 108.3 60.49 110.01 60.49 110.01 58.34 104.21 58.34 104.21 60.49"/>
          <path class="cls-1" d="M124.1,59.78l-3.85,10.83c-.34.96-.66,2.42-.66,2.42h-.05s-.34-1.48-.66-2.42l-3.85-10.83c-.41-1.16-.84-1.44-2.08-1.44h-1.39v2.14h.34c.43,0,.66.09.82.55h-.02l5.52,14.87h2.65l5.52-14.87c.16-.46.36-.55.82-.55h.34v-2.14h-1.39c-1.23,0-1.64.27-2.05,1.44"/>
          <path class="cls-1" d="M139.36,73.24c0,.34-.21.55-.55.55h-5.13c-.34,0-.55-.21-.55-.55v-5.11h6.14v-2.14h-6.14v-5.5h5c.34,0,.55.18.55.55v1.12h2.26v-2.21c0-1.12-.48-1.6-1.6-1.6h-10.33v2.14h1.62v13.84c0,1.12.48,1.6,1.6,1.6h7.82c1.12,0,1.6-.48,1.6-1.6v-2.21h-2.28v1.12h0Z"/>
          <path class="cls-1" d="M156.13,73.19l-2.12-4.2c-.3-.57-.75-.8-.75-.8v-.05c1.25-.27,3.17-1.71,3.17-4.65,0-3.22-2.17-5.15-5.25-5.15h-7.66v2.14h1.62v15.42h2.49v-7h2.28c.96,0,1.28.14,1.73.96l2.39,4.72c.57,1.14,1.07,1.32,2.44,1.32h1.23v-2.14h-.32c-.62,0-1-.05-1.25-.57M150.86,66.78h-3.24v-6.3h3.28c1.85,0,2.97,1.14,2.97,3.1s-1.12,3.19-3.01,3.19"/>
          <path class="cls-1" d="M162.35,62.68c0-1.32,1.19-2.37,3.08-2.37,1.39,0,2.71.68,2.71,1.6v.82h2.28v-1.44c0-2.39-3.12-3.24-5-3.24-3.33,0-5.63,2.05-5.63,4.7,0,5.47,8.48,4.9,8.48,8.58,0,1.62-1.37,2.62-3.01,2.62-2.51,0-4.27-1.97-4.39-2.11l-1.45,1.74s2.08,2.62,5.82,2.62c3.47,0,5.57-2.3,5.57-5,0-5.77-8.46-4.97-8.46-8.53"/>
          <path class="cls-1" d="M160.87,71.82h0s0,.01,0,.01h-.02s0-.01,0-.01Z"/>
          <polygon class="cls-1" points="173.41 60.49 175.12 60.49 175.12 73.76 173.41 73.76 173.41 75.91 179.21 75.91 179.21 73.76 177.5 73.76 177.5 60.49 179.21 60.49 179.21 58.34 173.41 58.34 173.41 60.49"/>
          <path class="cls-1" d="M194.4,58.37h-12.09c-1.12,0-1.48.37-1.48,1.48v2.3h2.21v-1.12c0-.37.21-.55.55-.55h3.51v15.42h2.49v-15.42h3.54c.34,0,.55.18.55.55v1.12h2.21v-2.3c0-1.12-.36-1.48-1.48-1.48"/>
          <path class="cls-1" d="M208.01,59.69l-2.65,4.42c-.59.96-1.07,1.96-1.07,1.96h-.05s-.5-.98-1.07-1.96l-2.67-4.42c-.71-1.16-1.19-1.35-2.37-1.35h-1.14v2.14h.5c.52,0,.75.09,1.07.62l4.45,7.14h.02v7.66h2.49v-7.66l4.42-7.14c.32-.52.57-.62,1.09-.62h.48v-2.14h-1.14c-1.19,0-1.69.18-2.37,1.35"/>
        </g>
      </g>
    </g>
  </g>
</svg>