<?xml version="1.0" encoding="UTF-8"?>
<svg id="Layer_2" xmlns="http://www.w3.org/2000/svg" version="1.1" viewBox="0 0 219.7 76.2">
  <!-- Generator: Adobe Illustrator 30.6.0, SVG Export Plug-In . SVG Version: 2.1.4 Build 109)  -->
  <defs>
    <style>
      .st0 {
        fill: #e61e2a;
      }

      .st1 {
        fill: #000054;
      }
    </style>
  </defs>
  <g id="Layer_2-2">
    <g id="Layer_1-2">
      <g id="RMIT_white">
        <g>
          <path class="st0" d="M26.2,0h-6.7v5.4h-11.1v11.3H0v16.6h8.4v11.3h11.1v5.4h5.9c13.8,0,25.9-11.1,25.9-25S40,0,26.2,0"/>
          <polygon class="st1" points="160.4 4.8 166.2 4.8 166.2 45.4 160.4 45.4 160.4 47.5 180.6 47.5 180.6 45.4 174.8 45.4 174.8 4.8 180.6 4.8 180.6 2.7 160.4 2.7 160.4 4.8"/>
          <path class="st1" d="M218.9,2.7h-35.9l-.7,11.8h2.1c1.2-8.6,2.8-10.6,12.3-10.1v41h-6.2v2.1h21v-2.1h-6.2V4.3c9.4-.5,11.1,1.6,12.3,10.1h2.1l-.7-11.8h0Z"/>
          <path class="st1" d="M142.2,5.5v39.9h-5.8v2.1h20.1v-2.1h-5.8V4.8h5.8v-2.1h-16.5l-9.7,30.6-9.4-30.6h-16.5v2.1h5.8v40.6h-6.2c-5.8.1-5.9-4.8-5.9-5.8,0-10.9-2.4-14.9-12.8-16.5h0c6.2-.8,14.2-2.6,14.2-10.1s-8.7-10.2-16-10.2h-21.6v2.1h5.8v40.6h-5.8v2.1h20.2v-2.1h-5.8v-21.4c3.7-.1,7.9.8,9.8,2.4,1.8,1.5,2.7,6.1,2.7,11.6s3.5,9.4,10.3,9.4h19.4v-2.1h-5.7V5.5h.1l13.3,42h2.3l13.4-42h.2ZM76.3,21.9h0s0-17.1,0-17.1h5.8c6,0,8.2,1.5,8.2,9s-2.5,8-8.5,8c0,0-5.5,0-5.5,0Z"/>
          <path class="st1" d="M78.6,59.9v9.7c0,2.7-1.7,4.2-4.2,4.2s-4.2-1.6-4.2-4.2v-9.7c0-1.1-.5-1.6-1.6-1.6h-2.5v2.1h1.1c.3,0,.6.2.6.5h0v8.7c0,3.8,2.7,6.4,6.7,6.4s6.7-2.6,6.7-6.4v-8.7c0-.4.2-.5.6-.5h1.1v-2.1h-2.5c-1.1,0-1.6.5-1.6,1.6"/>
          <path class="st1" d="M97.4,59.9v9.5c0,1,.2,2.4.2,2.4h0s-.8-1.5-1.5-2.4l-7.8-11.1h-2.3v14.9c0,.3-.2.6-.6.6h-1.1v2.1h2.5c1.1,0,1.6-.5,1.6-1.6v-9.5c0-1-.2-2.4-.2-2.4h0s.8,1.5,1.4,2.4l7.8,11.1h2.2v-14.9c0-.4.2-.5.6-.5h1.1v-2.1h-2.5c-1.1,0-1.6.5-1.6,1.6"/>
          <polygon class="st1" points="104.2 60.5 105.9 60.5 105.9 73.8 104.2 73.8 104.2 75.9 110 75.9 110 73.8 108.3 73.8 108.3 60.5 110 60.5 110 58.3 104.2 58.3 104.2 60.5"/>
          <path class="st1" d="M124.1,59.8l-3.8,10.8c-.3,1-.7,2.4-.7,2.4h0s-.3-1.5-.7-2.4l-3.8-10.8c-.4-1.2-.8-1.4-2.1-1.4h-1.4v2.1h.3c.4,0,.7,0,.8.5h0l5.5,14.9h2.7l5.5-14.9c.2-.5.4-.5.8-.5h.3v-2.1h-1.4c-1.2,0-1.6.3-2.1,1.4"/>
          <path class="st1" d="M139.4,73.2c0,.3-.2.6-.6.6h-5.1c-.3,0-.6-.2-.6-.6v-5.1h6.1v-2.1h-6.1v-5.5h5c.3,0,.6.2.6.5v1.1h2.3v-2.2c0-1.1-.5-1.6-1.6-1.6h-10.3v2.1h1.6v13.8c0,1.1.5,1.6,1.6,1.6h7.8c1.1,0,1.6-.5,1.6-1.6v-2.2h-2.3v1.1h0Z"/>
          <path class="st1" d="M156.1,73.2l-2.1-4.2c-.3-.6-.8-.8-.8-.8h0c1.2-.3,3.2-1.8,3.2-4.7s-2.2-5.2-5.2-5.2h-7.7v2.1h1.6v15.4h2.5v-7h2.3c1,0,1.3.1,1.7,1l2.4,4.7c.6,1.1,1.1,1.3,2.4,1.3h1.2v-2.1h-.3c-.6,0-1,0-1.2-.6M150.9,66.8h-3.2v-6.3h3.3c1.9,0,3,1.1,3,3.1s-1.1,3.2-3,3.2"/>
          <path class="st1" d="M162.4,62.7c0-1.3,1.2-2.4,3.1-2.4s2.7.7,2.7,1.6v.8h2.3v-1.4c0-2.4-3.1-3.2-5-3.2-3.3,0-5.6,2-5.6,4.7,0,5.5,8.5,4.9,8.5,8.6s-1.4,2.6-3,2.6c-2.5,0-4.3-2-4.4-2.1l-1.4,1.7s2.1,2.6,5.8,2.6,5.6-2.3,5.6-5c0-5.8-8.5-5-8.5-8.5"/>
          <path class="st1" d="M160.9,71.8h0s0,0,0,0h0s0,0,0,0Z"/>
          <polygon class="st1" points="173.4 60.5 175.1 60.5 175.1 73.8 173.4 73.8 173.4 75.9 179.2 75.9 179.2 73.8 177.5 73.8 177.5 60.5 179.2 60.5 179.2 58.3 173.4 58.3 173.4 60.5"/>
          <path class="st1" d="M194.4,58.4h-12.1c-1.1,0-1.5.4-1.5,1.5v2.3h2.2v-1.1c0-.4.2-.5.6-.5h3.5v15.4h2.5v-15.4h3.5c.3,0,.6.2.6.5v1.1h2.2v-2.3c0-1.1-.4-1.5-1.5-1.5"/>
          <path class="st1" d="M208,59.7l-2.6,4.4c-.6,1-1.1,2-1.1,2h0s-.5-1-1.1-2l-2.7-4.4c-.7-1.2-1.2-1.3-2.4-1.3h-1.1v2.1h.5c.5,0,.8,0,1.1.6l4.4,7.1h0v7.7h2.5v-7.7l4.4-7.1c.3-.5.6-.6,1.1-.6h.5v-2.1h-1.1c-1.2,0-1.7.2-2.4,1.3"/>
        </g>
      </g>
    </g>
  </g>
</svg>